<svg xmlns="http://www.w3.org/2000/svg" width="246.065" height="173.072" viewBox="0 0 246.065 173.072">
  <g id="Group_5847" data-name="Group 5847" transform="translate(-1000 -1273.995)">
    <path id="Path_16" data-name="Path 16" d="M32.99,7.911H4.583A4.592,4.592,0,0,0,0,12.494V40.907a4.591,4.591,0,0,0,4.583,4.577H32.99a4.587,4.587,0,0,0,4.583-4.577V12.494A4.588,4.588,0,0,0,32.99,7.911" transform="translate(1000 1311.012)" fill="#84d860"/>
    <path id="Path_17" data-name="Path 17" d="M34.829,10.177H63.242a2.315,2.315,0,0,1,2.311,2.317V40.907a2.313,2.313,0,0,1-2.311,2.311H34.829a2.313,2.313,0,0,1-2.311-2.311V12.494a2.315,2.315,0,0,1,2.311-2.317M63.242,7.911H34.829a4.587,4.587,0,0,0-4.577,4.583V40.907a4.586,4.586,0,0,0,4.577,4.577H63.242a4.586,4.586,0,0,0,4.577-4.577V12.494a4.587,4.587,0,0,0-4.577-4.583" transform="translate(1141.553 1311.012)" fill="#feef2f"/>
    <path id="Path_18" data-name="Path 18" d="M32.99,51.187H4.583a2.312,2.312,0,0,1-2.311-2.306V20.463a2.315,2.315,0,0,1,2.311-2.317H32.99a2.316,2.316,0,0,1,2.317,2.317V48.882a2.313,2.313,0,0,1-2.317,2.306m0-35.3H4.583A4.587,4.587,0,0,0,0,20.463V48.882a4.585,4.585,0,0,0,4.583,4.566H32.99a4.581,4.581,0,0,0,4.583-4.566V20.463a4.583,4.583,0,0,0-4.583-4.577" transform="translate(1000 1348.328)" fill="#1db682"/>
    <path id="Path_19" data-name="Path 19" d="M42.865,20.463V48.882a2.316,2.316,0,0,1-2.311,2.306H12.147A2.31,2.31,0,0,1,9.83,48.882V20.463a2.312,2.312,0,0,1,2.317-2.317H40.554a2.318,2.318,0,0,1,2.311,2.317m-2.311-4.577H12.147a4.583,4.583,0,0,0-4.583,4.577V48.882a4.581,4.581,0,0,0,4.583,4.566H40.554a4.583,4.583,0,0,0,4.577-4.566V20.463a4.586,4.586,0,0,0-4.577-4.577" transform="translate(1035.393 1348.328)" fill="#feef2f"/>
    <path id="Path_20" data-name="Path 20" d="M55.678,15.886H27.271a4.587,4.587,0,0,0-4.583,4.577V48.882a4.586,4.586,0,0,0,4.583,4.572H55.678a4.589,4.589,0,0,0,4.583-4.572V20.463a4.591,4.591,0,0,0-4.583-4.577" transform="translate(1106.16 1348.328)" fill="#84d860"/>
    <path id="Path_21" data-name="Path 21" d="M63.242,15.886H34.829a4.582,4.582,0,0,0-4.577,4.577V48.882a4.581,4.581,0,0,0,4.577,4.572H63.242a4.581,4.581,0,0,0,4.577-4.572V20.463a4.582,4.582,0,0,0-4.577-4.577" transform="translate(1141.553 1348.328)" fill="#84d860"/>
    <path id="Path_22" data-name="Path 22" d="M69.7,0H41.289a4.587,4.587,0,0,0-4.577,4.583V32.99a4.586,4.586,0,0,0,4.577,4.577H69.7a4.591,4.591,0,0,0,4.583-4.577V4.583A4.592,4.592,0,0,0,69.7,0" transform="translate(1171.78 1273.995)" fill="#84d860"/>
    <path id="Path_23" data-name="Path 23" d="M32.99,59.172H4.583a2.315,2.315,0,0,1-2.311-2.317V28.442a2.315,2.315,0,0,1,2.311-2.317H32.99a2.316,2.316,0,0,1,2.317,2.317V56.855a2.316,2.316,0,0,1-2.317,2.317m0-35.313H4.583A4.592,4.592,0,0,0,0,28.442V56.855a4.587,4.587,0,0,0,4.583,4.577H32.99a4.583,4.583,0,0,0,4.583-4.577V28.442a4.588,4.588,0,0,0-4.583-4.583" transform="translate(1000 1385.635)" fill="#feef2f"/>
    <path id="Path_24" data-name="Path 24" d="M40.554,23.859H12.147a4.588,4.588,0,0,0-4.583,4.583V56.855a4.583,4.583,0,0,0,4.583,4.577H40.554a4.586,4.586,0,0,0,4.577-4.577V28.442a4.591,4.591,0,0,0-4.577-4.583" transform="translate(1035.393 1385.635)" fill="#84d860"/>
    <path id="Path_25" data-name="Path 25" d="M50.427,28.442V56.855a2.315,2.315,0,0,1-2.311,2.317H19.709a2.316,2.316,0,0,1-2.317-2.317V28.442a2.316,2.316,0,0,1,2.317-2.317H48.116a2.315,2.315,0,0,1,2.311,2.317m-2.311-4.583H19.709a4.588,4.588,0,0,0-4.583,4.583V56.855a4.583,4.583,0,0,0,4.583,4.577H48.116A4.587,4.587,0,0,0,52.7,56.855V28.442a4.592,4.592,0,0,0-4.583-4.583" transform="translate(1070.776 1385.635)" fill="#1db682"/>
    <path id="Path_26" data-name="Path 26" d="M24.96,56.849V28.436a2.312,2.312,0,0,1,2.317-2.317h28.4a2.315,2.315,0,0,1,2.311,2.317V56.849a2.315,2.315,0,0,1-2.311,2.317h-28.4a2.312,2.312,0,0,1-2.317-2.317m2.317,4.583h28.4a4.6,4.6,0,0,0,4.589-4.583V28.436a4.592,4.592,0,0,0-4.589-4.577h-28.4a4.592,4.592,0,0,0-4.589,4.577V56.849a4.6,4.6,0,0,0,4.589,4.583" transform="translate(1106.16 1385.635)" fill="#feef2f"/>
    <path id="Path_27" data-name="Path 27" d="M34.829,26.125H63.242a2.315,2.315,0,0,1,2.311,2.317V56.855a2.315,2.315,0,0,1-2.311,2.317H34.829a2.315,2.315,0,0,1-2.311-2.317V28.442a2.315,2.315,0,0,1,2.311-2.317m28.413-2.266H34.829a4.587,4.587,0,0,0-4.577,4.583V56.855a4.582,4.582,0,0,0,4.577,4.577H63.242a4.582,4.582,0,0,0,4.577-4.577V28.442a4.587,4.587,0,0,0-4.577-4.583" transform="translate(1141.553 1385.635)" fill="#1db682"/>
    <path id="Path_28" data-name="Path 28" d="M25.165,16.924H2.67A1.635,1.635,0,0,0,1.04,18.56v22.5A1.635,1.635,0,0,0,2.67,42.7h22.5A1.636,1.636,0,0,0,26.8,41.06V18.56a1.636,1.636,0,0,0-1.636-1.636" transform="translate(1004.866 1353.185)" fill="#1db682"/>
    <path id="Path_29" data-name="Path 29" d="M40.285,24.9H17.8a1.63,1.63,0,0,0-1.63,1.63v22.5a1.631,1.631,0,0,0,1.63,1.636H40.285a1.636,1.636,0,0,0,1.636-1.636v-22.5a1.635,1.635,0,0,0-1.636-1.63" transform="translate(1075.643 1390.501)" fill="#1db682"/>
    <path id="Rectangle_1" data-name="Rectangle 1" d="M.288,0h25.19a.288.288,0,0,1,.288.288V25.474a.287.287,0,0,1-.287.287H.288A.288.288,0,0,1,0,25.473V.288A.288.288,0,0,1,.288,0Z" transform="translate(1177.703 1415.402)" fill="#1db682"/>
  </g>
</svg>
